<svg width="85" height="18" viewBox="0 0 85 18" fill="none" xmlns="http://www.w3.org/2000/svg">
<g clip-path="url(#clip0_358_3092)">
<path d="M41.4946 0H26.5054C23.0323 0 21.4602 2.15924 21.1312 4.24528V0H12.7957C11.6258 0 11.0774 0.365972 10.529 1.17111L8.26237 4.50146H41.4946V0ZM0 17.5667H5.95914L13.4172 5.48958L8.07957 4.97722L0 17.5667ZM47.271 0H42.372V4.50146H47.271V0ZM78.4559 7.02667L63.0645 6.11174C63.0645 8.45396 64.6 10.0642 67.2323 10.2472L78.1634 11.089C79.0043 11.1622 79.5161 11.3817 79.5161 12.0771C79.5161 12.7358 78.9312 12.992 77.6882 12.992H62.772V17.5667H78.0172C82.8064 17.5667 84.9269 15.8832 84.9269 12.0405C85 8.60035 83.0989 7.31945 78.4559 7.02667Z" fill="white"/>
<path d="M62.8817 6.11174L58.0559 5.81896V10.9792C58.0559 12.5894 57.2516 13.1018 54.4365 13.1018H50.5613C48.258 13.1018 47.271 12.4431 47.271 10.9792V5.34319L42.372 4.97722V11.4183H42.2623C41.9699 9.55188 41.2752 7.39264 36.5957 7.06326L21.2408 6.03854C21.2408 8.38076 22.9226 9.80806 25.5548 10.0642L36.2666 11.1622C37.1075 11.2353 37.729 11.4915 37.729 12.1869C37.729 12.9554 37.1075 13.0286 36.1204 13.0286H21.058V6.00194L16.1591 5.67257V17.5667H36.157C40.6172 17.5667 42.043 15.261 42.2623 13.3214H42.372C42.9204 16.3956 45.5892 17.5667 50.1226 17.5667H55.0946C60.3957 17.5667 62.8817 15.9564 62.8817 12.1503V6.11174ZM84.6344 4.50146V0H68.1462C64.7097 0 63.1742 2.12264 62.8817 4.17208C62.8817 4.20868 62.8817 4.20868 62.8817 4.24528V0H58.0559V4.50146H84.6344Z" fill="white"/>
</g>
<defs>
<clipPath id="clip0_358_3092">
<rect width="85" height="17.5667" fill="white"/>
</clipPath>
</defs>
</svg>
