<svg width="221" height="145" viewBox="0 0 221 145" fill="none" xmlns="http://www.w3.org/2000/svg">
<path opacity="0.12" d="M217.565 133.093C200.915 123.944 142.638 129.433 142.638 129.433C138.48 129.993 134.893 130.548 131.824 131.095C131.824 131.095 114.956 133.779 106.839 132.635C100.343 131.72 82.5191 130.513 73.0973 132.88C69.9558 132.136 65.6061 131.369 59.8056 130.588C59.8056 130.588 15.1993 126.386 2.45456 133.389C-10.2902 140.392 30.1741 141.793 41.8036 142.318C47.3656 142.569 63.0211 141.419 72.4408 139.422C79.7836 140.828 93.1723 140.607 100.387 139.726C111.623 138.354 117.265 139.8 129.944 141.706C142.301 143.859 159.599 145.055 166.157 144.758C181.35 144.072 234.216 142.242 217.565 133.093Z" fill="#606060"/>
<path d="M145.637 11.2039C136.819 8.82917 125.426 10.7214 118.11 16.3249L118.942 24.4629L104.346 36.5479L113.452 47.5024L104.07 53.6052L112.261 68.7165L92.1268 103.141L105.497 70.7937L92.4425 52.9147L105.856 46.4937L99.932 36.1067L112.828 22.7059L112.531 21.6552C110.203 10.5377 93.9685 1.15041 82.3738 0.14666C50.9428 -2.57384 33.8415 33.1137 42.507 60.6722C47.171 75.5047 55.2228 89.175 64.412 101.795C72.1073 112.364 92.6783 135.529 92.7625 135.478C92.824 135.555 120.083 120.832 130.931 113.536C143.886 104.824 156.131 94.737 165.591 82.3975C183.167 59.4707 176.1 19.4082 145.637 11.2039Z" fill="#BF3258"/>
<path d="M35.8594 27.291L36.3994 27.4833L46.1889 30.9678L53.4301 44.6003L48.2889 50.385L41.7979 47.827L35.8594 27.291Z" fill="#AAC0C0"/>
<path d="M13.8965 73.1423L14.225 102.431L20.5905 133.157L25.71 132.552L25.025 102.64L29.6655 70.0176L13.8965 73.1423Z" fill="#59595B"/>
<path d="M24.0762 68.487L31.9609 100.29L42.4542 133.065L47.2397 132.513L43.6092 98.8405L43.5539 67.627L24.0762 68.487Z" fill="#59595B"/>
<path d="M50.441 74.2265C50.724 77.224 50.9423 81.2758 49.9243 81.5005C49.7335 81.5428 49.5408 81.4498 49.3643 81.3593C47.5035 80.4035 46.13 78.9653 44.2975 78.0445C42.3768 77.0795 40.23 76.6508 38.1368 76.3948C35.0055 75.9938 31.8243 75.8378 28.6775 76.011C26.2038 76.1473 23.7395 76.5688 21.297 76.982C19.2648 77.3258 17.4115 78.148 15.3148 78.1418C13.1655 78.1355 11.006 77.5593 9.08554 76.4378C9.01529 76.3968 8.94054 76.3495 8.90654 76.2695C8.86954 76.1818 8.89154 76.0795 8.91429 75.987C9.25029 74.614 9.46504 73.2633 10.1745 72.094C10.9668 70.7883 11.4783 69.1663 12.0125 67.7075C13.126 64.6673 14.1513 61.4915 14.8488 58.289C15.9385 53.9255 17.237 49.6575 18.279 45.2835C19.001 42.2518 19.6363 39.1735 20.7068 36.2703C21.5448 33.9972 23.0913 30.6525 25.171 29.5237C25.8748 29.1417 26.6763 29.0522 27.4588 28.9682C29.833 28.7137 32.207 28.4592 34.5813 28.2047C35.4468 28.112 36.3478 28.024 37.1685 28.3655C38.3985 28.8772 39.1728 30.2222 39.8558 31.48C42.9183 37.1195 45.063 43.2863 46.486 49.7048C47.2288 53.056 47.9358 56.417 48.543 59.798C49.2208 63.571 49.7763 67.3703 50.1193 71.1918C50.1575 71.616 50.3065 72.8023 50.441 74.2265Z" fill="#AAC0C0"/>
<path d="M32.0362 41.6317C32.0475 42.987 32.3407 44.3222 32.6325 45.6462C34.4102 53.71 38.3972 68.6255 40.1747 76.6893C33.7805 77.1113 24.2282 77.398 17.834 77.82C17.837 74.7488 18.7885 64.961 18.7917 61.8895C18.7937 59.9205 18.7962 57.9447 19.066 55.9925C19.501 52.8435 20.6205 49.8265 21.7325 46.8377C23.7872 41.3155 25.8422 35.7932 27.897 30.271C28.007 29.9757 28.123 29.6705 28.3497 29.4467C28.621 29.179 29.0102 29.067 29.3835 28.973C31.1865 28.519 33.2292 28.0965 35.085 28.2287C35.6687 29.8655 34.193 32.8972 33.6817 34.4987C32.9377 36.829 32.0157 39.156 32.0362 41.6317Z" fill="white"/>
<path d="M21.2067 133.021L18.0215 135.098L18.5755 137.037L25.777 135.791L25.4375 132.593L21.2067 133.021Z" fill="#3A3029"/>
<path d="M43.1209 132.408L40.0967 134.853L40.9779 136.805L47.2987 135.015L46.7829 132.501L43.1209 132.408Z" fill="#3A3029"/>
<path d="M30.2743 30.9265C31.449 30.7258 32.6238 30.525 33.7988 30.3243C33.7435 29.3755 33.6123 28.4313 33.4065 27.5033C33.4315 27.616 35.1958 26.3803 35.3345 26.133C35.7338 25.4213 35.6515 24.321 35.7538 23.5215C35.9718 21.818 36.1378 19.9102 35.081 18.5565C33.9865 17.1547 31.968 16.8827 30.1983 17.0597C27.9765 17.282 25.5853 18.2402 24.687 20.2845C23.8755 22.131 25.4935 24.498 26.0935 26.2663C26.3893 27.138 26.7973 28.124 27.6765 28.3968C28.1433 28.5415 28.6763 28.452 29.106 28.6848C29.864 29.095 29.8423 30.1805 30.2743 30.9265Z" fill="#E6C9AC"/>
<path d="M20.7822 17.4451C20.4957 16.2376 20.2092 15.0301 19.9227 13.8228C19.8162 13.3743 19.7095 12.9086 19.8017 12.4571C19.9552 11.7061 20.6295 11.1638 21.3382 10.8723C22.0472 10.5808 22.819 10.4756 23.541 10.2181C24.3115 9.94334 25.0375 9.49284 25.8527 9.42584C27.4032 9.29884 28.7645 10.5796 30.3195 10.6303C32.4725 10.7006 34.288 9.48884 35.8762 11.8111C36.168 12.2378 36.2995 12.7548 36.5652 13.1983C36.9085 13.7711 37.4545 14.1881 37.9027 14.6831C39.8732 16.8598 39.7922 20.5519 38.0257 22.8314C37.1692 23.9366 36.8805 24.8749 35.5692 25.3604C36.029 24.0244 34.5782 19.1181 32.8132 18.7701C32.3457 18.6781 31.0677 19.3974 30.58 19.5329C29.4995 19.8329 28.4517 20.1449 27.4705 20.7046C26.014 21.5354 24.4027 22.1979 22.755 22.5324C22.5442 22.5751 22.3075 22.6131 22.129 22.4931C21.961 22.3801 21.902 22.1649 21.8555 21.9679C21.4977 20.4604 21.14 18.9529 20.7822 17.4451Z" fill="#3A3029"/>
<path d="M53.4298 44.6009L37.2523 27.4639L33.582 29.7059L41.7975 47.8276L48.2885 50.3856L53.4298 44.6009Z" fill="#B3CBCB"/>
<path d="M36.5808 27.8734C36.8958 27.4789 37.4398 24.7089 37.4398 24.7089L34.4664 22.0449L32.6104 23.4952L33.7731 26.9609L33.1451 27.1774C33.1451 27.1774 34.3298 29.2749 34.3233 29.2524C34.3171 29.2302 36.5808 27.8734 36.5808 27.8734Z" fill="#DABCA3"/>
<path d="M24.9607 30.8855L20.2337 51.457L13.4057 53.0328L11.3047 46.0295L21.1089 29.5723L24.9607 30.8855Z" fill="#B3CBCB"/>
<path d="M21.9843 29.9232L20.7588 27.122L23.385 23.9707L24.9605 24.846L24.6105 28.1725L25.3983 28.4935L24.6105 30.7987L21.9843 29.9232Z" fill="#E6C9AC"/>
<path d="M187.999 18.4603C187.947 18.4263 187.898 18.3895 187.845 18.3573L187.994 18.4413C188.091 18.2925 188.197 18.1493 188.308 18.0103C189.172 16.9285 190.418 16.1538 191.774 15.873C192.976 17.0235 193.574 18.7728 193.328 20.4183C193.225 21.1063 192.973 21.7673 192.609 22.3598L192.61 22.3611C192.61 22.3611 192.604 22.3696 192.596 22.3821C192.563 22.4346 192.529 22.4863 192.495 22.5375C191.961 23.3813 189.749 27.1756 190.012 31.7793C190.312 37.0098 188.642 38.1821 188.642 38.1821C188.642 38.1821 183.851 38.1118 181.322 36.5446C178.856 35.0156 183.914 24.4813 187.999 18.4603Z" fill="#5E533B"/>
<path d="M185.854 30.6689L191.526 33.6142L199.197 48.0885L201.185 51.605L195.728 54.7985L185.854 30.6689Z" fill="#CDA691"/>
<path d="M172.13 136.501L171.939 138.383L175.36 140.731L177.356 139.081L175.741 136.966L172.321 134.618L172.13 136.501Z" fill="#3A3029"/>
<path d="M172.235 79.4764L171.655 85.1939L176.785 104.838L172.022 136.405L175.528 137.613L184.772 106.794L186.239 97.8287L186.186 78.8486L172.235 79.4764Z" fill="#5E4C3E"/>
<path d="M200.329 84.2675L192.955 137.163H189.603L189 103.257L182.899 79.459L200.329 84.2675Z" fill="#5E4C3E"/>
<path d="M189.603 136.209V138.109L193.227 140.009L195.04 138.109L193.227 136.209H189.603Z" fill="#3A3029"/>
<path d="M184.715 29.6558L184.765 29.5908C182.198 29.6958 179.479 30.2461 177.394 30.2461C168.417 36.5901 173.374 52.2048 171.467 63.2438C169.442 74.9681 167.162 86.6481 164.628 98.2731C164.485 98.9314 174.685 98.5994 175.647 98.6156C185.46 98.7811 198.305 98.7474 207.773 95.7804C201.863 79.9124 199.621 62.8658 195.073 46.5516C190.956 33.3846 184.715 29.6558 184.715 29.6558Z" fill="#CDA691"/>
<path d="M184.812 29.5713L189.601 43.7688L195.747 98.0538L186.239 98.7624H178.947L181.615 49.9963L180.529 30.002L184.812 29.5713Z" fill="#FAF1D3"/>
<path d="M192.631 23.2188L193.382 24.672L193.378 26.984L191.299 27.9825L189.009 22.9475L190.415 21.3535L192.631 23.2188Z" fill="#DFC3AB"/>
<path d="M189.842 25.997L194.625 45.6686L197.274 51.3798L201.185 51.6053L202.991 44.6371L193.947 25.6338L189.842 25.997Z" fill="#CDA691"/>
<path d="M191.779 21.7532C192.376 15.5972 184.793 14.4795 181.325 18.5935C179.352 20.933 179.488 25.0992 181.321 27.6622C181.222 28.1935 180.873 29.638 181.167 30.0985C181.486 30.5972 182.937 30.6337 183.5 30.6655C183.657 30.6742 183.822 30.6767 183.959 30.6015C184.131 30.5072 184.257 30.1572 184.375 29.763C184.77 29.8497 185.189 29.89 185.631 29.8752C187.489 29.8132 189.174 28.602 190.181 27.0395C191.187 25.4767 191.599 23.603 191.779 21.7532Z" fill="#E6C9AC"/>
<path d="M175.254 38.8198C176.65 39.1928 178.078 39.4485 179.518 39.5795C178.528 39.4893 181.141 29.3763 181.31 28.6733C181.795 26.6573 182.425 23.775 183.96 22.3812C185.495 20.9875 187.381 20.8905 189.662 19.8967C190.452 19.5522 191.209 19.0242 191.616 18.2637C192.066 17.4227 191.983 16.3722 191.596 15.5005C191.001 14.159 190.078 13.3087 188.714 12.8755C185.96 12.0002 182.683 12.2495 180.206 13.7907C177.213 15.6527 175.49 19.1582 174.425 22.4143C174.14 23.288 173.904 24.1825 173.512 25.0135C173.091 25.9028 172.501 26.6985 171.947 27.511C171.129 28.7113 170.374 29.982 170.002 31.386C169.629 32.79 169.675 34.3538 170.394 35.616C171.397 37.377 173.379 38.319 175.254 38.8198Z" fill="#5E533B"/>
<path d="M172.465 76.0216L172.997 77.5689L174.671 79.1626L176.829 78.3499L174.771 73.2156L172.647 73.1309L172.465 76.0216Z" fill="#DFC3AB"/>
</svg>
